<svg width="48" height="48" viewBox="0 0 48 48" fill="none" xmlns="http://www.w3.org/2000/svg">
<path d="M0 24C0 10.7452 10.7452 0 24 0H48V48H24C10.7452 48 0 37.2548 0 24Z" fill="#FAB915"/>
<path d="M16 29.8277C16.2849 33.0366 18.9124 35.3138 22.9124 35.6083V37.949H24.9201V35.6083C29.2897 35.2637 32 32.8402 32 29.256C32 26.1954 30.1771 24.4244 26.3099 23.4273L24.9201 23.0674V15.7488C27.0799 15.9605 28.5371 17.1232 28.9047 18.8595H31.7344C31.4148 15.7796 28.77 13.5698 24.9201 13.3253V11H22.9124V13.3734C19.18 13.8162 16.6179 16.2069 16.6179 19.4485C16.6179 22.2474 18.4774 24.2281 21.7401 25.0635L22.9143 25.3754V33.1347C20.7026 32.8075 19.18 31.5948 18.8123 29.8277H16ZM22.5274 22.4437C20.5197 21.9374 19.4475 20.8556 19.4475 19.333C19.4475 17.5159 20.8027 16.1742 22.9124 15.8142V22.5419L22.5274 22.4437ZM25.59 26.0472C28.0674 26.6689 29.155 27.7007 29.155 29.4524C29.155 31.564 27.565 32.9711 24.9201 33.1848V25.8797L25.59 26.0452V26.0472Z" fill="white"/>
</svg>
