<svg id="Component_619_1" data-name="Component 619 – 1" xmlns="http://www.w3.org/2000/svg" width="30" height="27.336" viewBox="0 0 30 27.336">
  <path id="Path_32674" data-name="Path 32674" d="M54.484,208.719a1.5,1.5,0,0,1-2.484-1.1V204.25a3,3,0,0,1-3-3v-10.5a3,3,0,0,1,3-3H68.5a3,3,0,0,1,3,3v10.5a3,3,0,0,1-3,3H61Zm1.266-4.64a.807.807,0,0,0,.39-.1l3.533-2.458a1.506,1.506,0,0,1,.856-.268H67a1.5,1.5,0,0,0,1.5-1.5v-7.5a1.5,1.5,0,0,0-1.5-1.5H53.5a1.5,1.5,0,0,0-1.5,1.5v7.5a1.511,1.511,0,0,0,1.5,1.5,1.959,1.959,0,0,1,1.266.339c.192.2.2.54.234,1.185,0,.094,0,.265,0,.555a.751.751,0,0,0,.75.75Zm17.25-7.3q-.007.277,0,.555v-.555c.03-.645.042-.984.234-1.185a1.953,1.953,0,0,1,1.266-.339,1.511,1.511,0,0,0,1.5-1.5v-7.5a1.5,1.5,0,0,0-1.5-1.5H61a1.5,1.5,0,0,0-1.5,1.5h-3v-1.5a3,3,0,0,1,3-3H76a3,3,0,0,1,3,3v10.5a3,3,0,0,1-3,3v3.365a1.5,1.5,0,0,1-2.484,1.1L73,202.365v-5.591Z" transform="translate(-49 -181.75)" fill="#fff"/>
</svg>
