<svg id="Component_616_1" data-name="Component 616 – 1" xmlns="http://www.w3.org/2000/svg" width="10" height="16.667" viewBox="0 0 10 16.667">
  <path id="Path_32864" data-name="Path 32864" d="M23.333,15.084H25c0-2.364-2.3-3.443-4.167-3.691V9.667H19.166v1.726C17.3,11.641,15,12.719,15,15.084c0,2.255,2.222,3.427,4.167,3.692v4.142c-1.207-.209-2.5-.853-2.5-2H15c0,2.157,2.021,3.433,4.167,3.7v1.72h1.667V24.609C22.7,24.36,25,23.281,25,20.917s-2.3-3.442-4.167-3.691V13.084C21.941,13.283,23.333,13.868,23.333,15.084Zm-6.667,0c0-1.216,1.392-1.8,2.5-2v4C18.023,16.872,16.666,16.248,16.666,15.084Zm6.667,5.833c0,1.216-1.392,1.8-2.5,2v-4C21.941,19.116,23.333,19.7,23.333,20.917Z" transform="translate(-14.999 -9.667)" fill="#37474f"/>
</svg>
