<svg width="24" height="24" viewBox="0 0 24 24" fill="none" xmlns="http://www.w3.org/2000/svg">
<g clip-path="url(#clip0_85_287)">
<path d="M6.7225 23.76C5.1709 23.76 3.7177 23.094 2.6689 22.032C0.634902 19.9728 0.0685028 16.3788 2.9197 13.4928L14.6173 1.64875C15.8029 0.448755 17.3113 -0.0156451 18.7549 0.376755C20.1745 0.760755 21.3361 1.93795 21.7165 3.37435C22.1029 4.83835 21.6457 6.36595 20.4613 7.56595L9.2737 18.894C8.6353 19.5408 7.9129 19.9236 7.1881 20.0004C6.4693 20.0772 5.7841 19.8444 5.3041 19.3584C4.4353 18.4752 4.3105 16.818 5.7577 15.354L13.6153 7.39795C13.9381 7.07155 14.4613 7.07155 14.7841 7.39795C15.1069 7.72435 15.1069 8.25475 14.7841 8.58115L6.9253 16.5384C6.2461 17.2248 6.1837 17.8812 6.4729 18.1752C6.6001 18.3024 6.7921 18.3612 7.0141 18.336C7.3537 18.3012 7.7413 18.0768 8.1049 17.7108L19.2925 6.38395C20.0605 5.60635 20.3545 4.69195 20.1205 3.80995C20.0035 3.37865 19.7771 2.98487 19.4632 2.66677C19.1493 2.34868 18.7586 2.11706 18.3289 1.99435C17.4577 1.75795 16.5529 2.05675 15.7849 2.83435L4.0873 14.6784C1.9081 16.8852 2.4301 19.4256 3.8365 20.85C5.2441 22.2744 7.7509 22.8048 9.9313 20.5956L21.6289 8.75155C21.7052 8.67398 21.7961 8.61237 21.8965 8.57032C21.9968 8.52826 22.1045 8.5066 22.2133 8.5066C22.3221 8.5066 22.4298 8.52826 22.5301 8.57032C22.6305 8.61237 22.7214 8.67398 22.7977 8.75155C22.953 8.90955 23.04 9.12222 23.04 9.34375C23.04 9.56529 22.953 9.77796 22.7977 9.93595L11.1001 21.78C9.7213 23.1744 8.1769 23.76 6.7225 23.76Z" fill="#3C3C3C"/>
</g>
<defs>
<clipPath id="clip0_85_287">
<rect width="24" height="24" fill="white"/>
</clipPath>
</defs>
</svg>
