<svg width="160" height="160" viewBox="0 0 160 160" fill="none" xmlns="http://www.w3.org/2000/svg">
<rect width="160" height="160" rx="80" fill="#FFEEC5"/>
<path d="M42.5 125C42.5 125 35 125 35 117.5C35 110 42.5 87.5 80 87.5C117.5 87.5 125 110 125 117.5C125 125 117.5 125 117.5 125H42.5ZM80 80C85.9674 80 91.6903 77.6295 95.9099 73.4099C100.129 69.1903 102.5 63.4674 102.5 57.5C102.5 51.5326 100.129 45.8097 95.9099 41.5901C91.6903 37.3705 85.9674 35 80 35C74.0326 35 68.3097 37.3705 64.0901 41.5901C59.8705 45.8097 57.5 51.5326 57.5 57.5C57.5 63.4674 59.8705 69.1903 64.0901 73.4099C68.3097 77.6295 74.0326 80 80 80Z" fill="white"/>
</svg>
