<svg width="22" height="22" viewBox="0 0 22 22" fill="none" xmlns="http://www.w3.org/2000/svg">
<path d="M21.5004 0.515086C21.3462 0.36058 21.163 0.238001 20.9614 0.154365C20.7598 0.0707296 20.5437 0.0276793 20.3254 0.0276793C20.1071 0.0276793 19.891 0.0707296 19.6893 0.154365C19.4877 0.238001 19.3046 0.36058 19.1504 0.515086L11.0004 8.64842L2.85037 0.498419C2.69607 0.344116 2.51289 0.221716 2.31128 0.138208C2.10967 0.0546995 1.89359 0.0117188 1.67537 0.0117188C1.45716 0.0117187 1.24107 0.0546995 1.03947 0.138208C0.83786 0.221716 0.654676 0.344116 0.500372 0.498419C0.346069 0.652722 0.223669 0.835907 0.140161 1.03751C0.0566526 1.23912 0.0136719 1.4552 0.0136719 1.67342C0.0136719 1.89164 0.0566526 2.10772 0.140161 2.30933C0.223669 2.51093 0.346069 2.69412 0.500372 2.84842L8.65037 10.9984L0.500372 19.1484C0.346069 19.3027 0.223669 19.4859 0.140161 19.6875C0.0566526 19.8891 0.0136719 20.1052 0.0136719 20.3234C0.0136719 20.5416 0.0566526 20.7577 0.140161 20.9593C0.223669 21.1609 0.346069 21.3441 0.500372 21.4984C0.654676 21.6527 0.83786 21.7751 1.03947 21.8586C1.24107 21.9421 1.45716 21.9851 1.67537 21.9851C1.89359 21.9851 2.10967 21.9421 2.31128 21.8586C2.51289 21.7751 2.69607 21.6527 2.85037 21.4984L11.0004 13.3484L19.1504 21.4984C19.3047 21.6527 19.4879 21.7751 19.6895 21.8586C19.8911 21.9421 20.1072 21.9851 20.3254 21.9851C20.5436 21.9851 20.7597 21.9421 20.9613 21.8586C21.1629 21.7751 21.3461 21.6527 21.5004 21.4984C21.6547 21.3441 21.7771 21.1609 21.8606 20.9593C21.9441 20.7577 21.9871 20.5416 21.9871 20.3234C21.9871 20.1052 21.9441 19.8891 21.8606 19.6875C21.7771 19.4859 21.6547 19.3027 21.5004 19.1484L13.3504 10.9984L21.5004 2.84842C22.1337 2.21509 22.1337 1.14842 21.5004 0.515086Z" fill="white"/>
</svg>
